<svg xmlns="http://www.w3.org/2000/svg" fill="none" viewBox="0 0 24 24"><path fill="#8fbffa" d="m12 21 7-3V9H5v9l7 3Z"></path><path stroke="#2859c5" stroke-width="1.5" d="M5 6s3-2 7-2 7 2 7 2v12l-7 3-7-3V6Z"></path><path fill="#ffffff" d="M5 6s3-2 7-2 7 2 7 2v3H5V6Z"></path><path stroke="#2859c5" stroke-width="1.5" d="M5 6s3-2 7-2 7 2 7 2v3H5V6Z"></path><path stroke="#2859c5" stroke-width="1.5" d="M5 9h14"></path><path stroke="#2859c5" stroke-width="1.5" d="m1 14 4 0"></path><path stroke="#2859c5" stroke-width="1.5" d="m19 14 4 0"></path><path stroke="#2859c5" stroke-width="1.5" d="m5 18-3.5 2"></path><path stroke="#2859c5" stroke-width="1.5" d="m19 18 3.5 2"></path><path stroke="#2859c5" stroke-width="1.5" d="M5 10 1.5 8"></path><path stroke="#2859c5" stroke-width="1.5" d="m19 10 3.5-2"></path><path stroke="#2859c5" stroke-width="1.5" d="M11 4 8 1"></path><path stroke="#2859c5" stroke-width="1.5" d="m16 1-3 3"></path></svg>